<svg id="Group_61" data-name="Group 61" xmlns="http://www.w3.org/2000/svg" xmlns:xlink="http://www.w3.org/1999/xlink" width="72.808" height="72.8" viewBox="0 0 72.808 72.8">
  <defs>
    <clipPath id="clip-path">
      <rect id="Rectangle_135" data-name="Rectangle 135" width="72.808" height="72.8" fill="none"/>
    </clipPath>
  </defs>
  <g id="Group_60" data-name="Group 60" clip-path="url(#clip-path)">
    <path id="Path_103" data-name="Path 103" d="M0,38.04V34.772c.02-.119.045-.238.06-.358.2-1.644.311-3.3.619-4.928A35.257,35.257,0,0,1,9.593,11.8,35.783,35.783,0,0,1,31.385.366a35.594,35.594,0,0,1,14.423.878,36.379,36.379,0,0,1,26.63,30.107,35.24,35.24,0,0,1-.568,13.2A35.947,35.947,0,0,1,56.262,66.892a35.18,35.18,0,0,1-15.983,5.7c-.749.079-1.5.142-2.248.213H34.763c-.145-.022-.29-.056-.436-.064A34.942,34.942,0,0,1,23.8,70.555a36.115,36.115,0,0,1-18.834-15.8A35.293,35.293,0,0,1,.212,40.284C.134,39.537.07,38.788,0,38.04M20.655,12.23l-.048.053c.05.1.1.2.152.3Q27.071,24.3,33.389,36.02a.678.678,0,0,1,.021.739Q27.076,48.489,20.76,60.23c-.055.1-.1.209-.2.409L60.533,36.406,20.655,12.23" transform="translate(0 -0.001)" fill="#ff911b"/>
    <path id="Path_104" data-name="Path 104" d="M276.659,164.494l39.878,24.176L276.565,212.9c.1-.2.144-.307.2-.409q6.321-11.738,12.65-23.472a.678.678,0,0,0-.021-.739q-6.322-11.716-12.63-23.441c-.053-.1-.1-.2-.152-.3Z" transform="translate(-256.003 -152.264)" fill="#fff"/>
  </g>
</svg>
