<svg id="Group_67" data-name="Group 67" xmlns="http://www.w3.org/2000/svg" xmlns:xlink="http://www.w3.org/1999/xlink" width="28.061" height="28.057" viewBox="0 0 28.061 28.057">
  <defs>
    <clipPath id="clip-path">
      <rect id="Rectangle_138" data-name="Rectangle 138" width="28.061" height="28.057" fill="#ffa81b"/>
    </clipPath>
  </defs>
  <g id="Group_63" data-name="Group 63" clip-path="url(#clip-path)">
    <path id="Path_108" data-name="Path 108" d="M18.856,6.023c.5,0,.916,0,1.33,0,1.188.016,2.385-.049,3.562.072a4.889,4.889,0,0,1,4.286,4.724q.052,6.211,0,12.422a4.959,4.959,0,0,1-4.987,4.809c-4.736.011-9.472,0-14.208,0-1.252,0-2.5,0-3.755,0A5,5,0,0,1,0,22.981Q0,17.036,0,11.091A5,5,0,0,1,5.058,6.024c1.168,0,2.337,0,3.5,0h.3l.054-.088a2.3,2.3,0,0,1-.246-.173c-.739-.676-1.483-1.346-2.21-2.035A1.393,1.393,0,0,1,6.228,1.9a1.473,1.473,0,0,1,1.719-.687,2.181,2.181,0,0,1,.676.433c1.521,1.382,3.031,2.775,4.544,4.165a1.3,1.3,0,0,0,1.477-.007Q17.571,3.119,20.5.43a1.5,1.5,0,0,1,2.5.736,1.407,1.407,0,0,1-.482,1.489q-1.534,1.406-3.065,2.815c-.176.162-.351.326-.6.552m-4.825,3H5.177A2.011,2.011,0,0,0,3.007,11.19q0,5.85,0,11.7A2.012,2.012,0,0,0,5.178,25.05H22.856a2.017,2.017,0,0,0,2.186-2.178q0-5.834,0-11.668a2.014,2.014,0,0,0-2.188-2.176H14.031" transform="translate(0 0)" fill="#ffa81b"/>
    <path id="Path_109" data-name="Path 109" d="M107.873,137.751c0-1.137,0-2.273,0-3.41a2.5,2.5,0,0,1,3.866-2.208q2.888,1.687,5.765,3.39a2.5,2.5,0,0,1,0,4.484q-2.876,1.706-5.765,3.39a2.508,2.508,0,0,1-3.868-2.237q0-1.7,0-3.41m3.021,2.661,4.5-2.647-4.5-2.646Z" transform="translate(-98.854 -120.727)" fill="#ffa81b"/>
  </g>
</svg>
